<?xml version="1.0" encoding="utf-8"?>
<!-- Generator: Adobe Illustrator 18.1.1, SVG Export Plug-In . SVG Version: 6.00 Build 0)  -->
<svg version="1.1" id="Layer_1" xmlns="http://www.w3.org/2000/svg" xmlns:xlink="http://www.w3.org/1999/xlink" x="0px" y="0px"
	 viewBox="0 0 20 20" style="enable-background:new 0 0 20 20;" xml:space="preserve">
<style type="text/css">
	.Drop_x0020_Shadow{fill:none;}
	.Round_x0020_Corners_x0020_2_x0020_pt{fill:#FFFFFF;stroke:#231F20;stroke-miterlimit:10;}
	.Live_x0020_Reflect_x0020_X{fill:none;}
	.Bevel_x0020_Soft{fill:url(#SVGID_1_);}
	.Dusk{fill:#FFFFFF;}
	.Foliage_GS{fill:#FFDD00;}
	.Pompadour_GS{fill-rule:evenodd;clip-rule:evenodd;fill:#44ACE1;}
	.st0{fill:#A7A9AC;}
</style>
<linearGradient id="SVGID_1_" gradientUnits="userSpaceOnUse" x1="0" y1="0" x2="0.7071" y2="0.7071">
	<stop  offset="0" style="stop-color:#DEDFE3"/>
	<stop  offset="0.1783" style="stop-color:#DADBDF"/>
	<stop  offset="0.3611" style="stop-color:#CECFD3"/>
	<stop  offset="0.546" style="stop-color:#B9BCBF"/>
	<stop  offset="0.7324" style="stop-color:#9CA0A2"/>
	<stop  offset="0.9181" style="stop-color:#787D7E"/>
	<stop  offset="1" style="stop-color:#656B6C"/>
</linearGradient>
<path class="st0" d="M5.8,19.1c-1.1,0-2.2-0.4-3-1.2c-1.6-1.6-1.6-4.3,0-6l0.3-0.4l9.5-9.5l0.3-0.3c1.2-1.2,3.3-1.2,4.5,0
	c0.6,0.6,0.9,1.4,0.9,2.3c0,0.9-0.3,1.7-0.9,2.3l-0.3,0.3l-6.9,6.9l-0.2,0.2c-0.9,0.9-2.3,0.9-3.1,0c-0.4-0.4-0.6-1-0.6-1.5
	c0-0.6,0.2-1.1,0.6-1.5l0.2-0.2l4.4-4.4C11.6,6,11.7,6,11.8,6c0.1,0,0.2,0,0.3,0.1s0.1,0.2,0.1,0.3s0,0.2-0.1,0.3L7.7,11l-0.2,0.2
	c-0.3,0.3-0.4,0.6-0.4,1c0,0.4,0.2,0.8,0.4,1c0.6,0.6,1.5,0.6,2.1,0L9.7,13l7.2-7.2c1-1,1-2.5,0-3.5c-1-1-2.5-1-3.5,0l-0.3,0.3
	l-9.5,9.5l-0.3,0.4C2,13.8,2,16,3.4,17.4c1.4,1.4,3.6,1.4,4.9,0L8.7,17l6.9-6.9c0.1-0.1,0.2-0.1,0.3-0.1c0.1,0,0.2,0,0.3,0.1
	c0.1,0.1,0.1,0.2,0.1,0.3c0,0.1,0,0.2-0.1,0.3l-6.9,6.9l-0.4,0.3C8,18.7,6.9,19.1,5.8,19.1z"/>
</svg>
